<svg width="20" height="20" viewBox="0 0 20 20" fill="none" xmlns="http://www.w3.org/2000/svg">
<g clip-path="url(#clip0_916_26529)">
<rect width="20" height="20" rx="5" fill="#2F67DD"/>
<path d="M7.97888 14.7604C7.85448 14.7604 7.73272 14.7363 7.61361 14.688C7.4945 14.6397 7.38136 14.5619 7.27418 14.4547L3.75334 10.9339C3.56342 10.744 3.47194 10.5056 3.47888 10.2187C3.48583 9.93191 3.58426 9.69354 3.77417 9.50362C3.96409 9.31371 4.20065 9.21875 4.48386 9.21875C4.76707 9.21875 5.00363 9.31371 5.19355 9.50362L8.02055 12.3306L14.8267 5.52446C15.0166 5.33454 15.2481 5.23875 15.521 5.23708C15.794 5.23543 16.027 5.33122 16.2203 5.52446C16.4102 5.71437 16.5052 5.94664 16.5052 6.22125C16.5052 6.49585 16.4102 6.7281 16.2203 6.91802L8.68359 14.4547C8.57641 14.5619 8.46326 14.6397 8.34415 14.688C8.22504 14.7363 8.10329 14.7604 7.97888 14.7604Z" fill="white"/>
</g>
<rect x="1" y="1" width="18" height="18" rx="4" stroke="#2F67DD" stroke-width="2"/>
<defs>
<clipPath id="clip0_916_26529">
<rect width="20" height="20" rx="5" fill="white"/>
</clipPath>
</defs>
</svg>
