<svg width="1440" height="405" viewBox="0 0 1440 405" fill="none" xmlns="http://www.w3.org/2000/svg">
<g clip-path="url(#clip0_590_23691)">
<path opacity="0.48" fill-rule="evenodd" clip-rule="evenodd" d="M2715.34 161.303C2720.2 152.236 2724.44 144.321 2728.03 137.809L2730 138.895C2726.42 145.386 2722.19 153.284 2717.34 162.336C2684.88 222.876 2624.73 335.082 2548.46 423.962C2504.63 475.046 2455.38 518.53 2402.91 540.046C2350.37 561.59 2294.62 561.091 2237.99 524.253C2122.33 449.018 2045.89 359.503 1978.19 280.229C1963.42 262.93 1949.06 246.119 1934.81 230.05C1855.2 140.321 1778.73 73.7415 1650.11 73.7415C1621.11 73.7415 1598.78 81.7245 1580.13 95.5429C1561.45 109.383 1546.4 129.121 1532.06 152.731C1522.36 168.712 1513.01 186.4 1503.08 205.186C1498.33 214.174 1493.45 223.413 1488.33 232.836C1472.53 261.922 1454.53 292.679 1431.38 322.939C1385.06 383.484 1318.17 441.984 1207.11 481.279C1096.09 520.563 940.978 540.634 718.241 524.432L718.404 522.186C940.951 538.374 1095.73 518.303 1206.36 479.156C1316.97 440.019 1383.52 381.797 1429.59 321.571C1452.64 291.445 1470.58 260.805 1486.35 231.761C1491.44 222.395 1496.31 213.186 1501.05 204.212C1510.99 185.39 1520.4 167.601 1530.14 151.562C1544.54 127.858 1559.76 107.83 1578.79 93.7337C1597.84 79.6153 1620.65 71.4897 1650.11 71.4897C1779.74 71.4897 1856.78 138.711 1936.49 228.556C1950.79 244.672 1965.17 261.516 1979.96 278.835C2047.65 358.097 2123.85 447.324 2239.22 522.365C2295.17 558.764 2350.13 559.253 2402.06 537.963C2454.05 516.644 2503.01 473.47 2546.75 422.496C2622.84 333.823 2682.86 221.868 2715.34 161.303Z" fill="white" fill-opacity="0.24"/>
<path opacity="0.48" fill-rule="evenodd" clip-rule="evenodd" d="M1480.51 459.278C1527.38 478.968 1587.76 488.905 1670.65 484.429C1794.58 477.737 1895.56 411.409 2005.28 339.339C2019.47 330.014 2033.82 320.593 2048.37 311.193C2175.37 229.189 2318.48 148.964 2522.94 148.964V151.216C2319.15 151.216 2176.49 231.145 2049.6 313.084C2035.06 322.474 2020.72 331.892 2006.52 341.221C1896.87 413.255 1795.35 479.951 1670.78 486.678C1587.65 491.166 1526.91 481.212 1479.63 461.354C1432.35 441.491 1398.63 411.755 1369.5 376.831C1350.03 353.495 1332.58 327.782 1314.5 301.158C1305.56 287.999 1296.48 274.618 1286.93 261.191C1258.01 220.547 1224.7 179.328 1178.06 142.082C1084.79 67.6083 937.999 8.85995 665.875 2.77258C393.735 -3.31519 -3.64648 43.2666 -597.974 179.361L-598.476 177.166C-4.0752 41.0546 393.515 -5.57245 665.925 0.521362C938.35 6.61551 1085.68 65.4391 1179.46 140.322C1226.34 177.753 1259.78 219.159 1288.76 259.885C1298.38 273.406 1307.5 286.836 1316.45 300.016C1334.48 326.582 1351.83 352.136 1371.23 375.389C1400.2 410.124 1433.65 439.593 1480.51 459.278Z" fill="white" fill-opacity="0.24"/>
<path opacity="0.48" fill-rule="evenodd" clip-rule="evenodd" d="M2699.32 182.872C2708.23 167.373 2715.78 154.262 2721.81 144.448L2723.73 145.628C2717.74 155.378 2710.22 168.433 2701.34 183.884C2666.15 245.043 2609.38 343.734 2539.65 423.547C2495.97 473.541 2447.12 516.243 2395.2 537.685C2343.21 559.154 2288.15 559.295 2232.26 524.194L2232.25 524.192C2118.9 452.496 2043.39 367.054 1976.41 291.246C1961.52 274.395 1947.05 258.02 1932.67 242.378C1853.63 156.347 1777.58 92.4707 1650.73 92.5851C1620.07 92.7207 1596.57 100.176 1577.07 112.991C1557.54 125.82 1541.94 144.064 1527.16 165.894C1517.01 180.898 1507.27 197.534 1496.92 215.228C1492.2 223.304 1487.34 231.601 1482.26 240.064C1466.06 267.037 1447.59 295.613 1423.72 323.826C1328.14 436.787 1146.36 543.477 678.372 520.308L678.483 518.059C1146.12 541.21 1327.06 434.581 1422 322.372C1445.76 294.292 1464.16 265.834 1480.33 238.905C1485.38 230.498 1490.22 222.231 1494.93 214.169C1505.3 196.438 1515.1 179.698 1525.3 164.632C1540.15 142.693 1555.94 124.172 1575.83 111.109C1595.74 98.0317 1619.67 90.47 1650.73 90.3333H1650.73C1778.56 90.218 1855.18 154.702 1934.33 240.855C1948.75 256.544 1963.25 272.952 1978.16 289.824C2045.14 365.618 2120.4 450.78 2233.46 522.288C2288.66 556.96 2342.95 556.825 2394.34 535.604C2445.8 514.356 2494.37 471.953 2537.95 422.065C2607.51 342.447 2664.12 244.055 2699.32 182.872Z" fill="white" fill-opacity="0.24"/>
<path opacity="0.48" fill-rule="evenodd" clip-rule="evenodd" d="M2683.68 201.831C2696.51 180.847 2707.24 163.301 2715.59 151.068L2717.45 152.337C2709.18 164.451 2698.52 181.895 2685.73 202.793C2649.17 262.586 2595.3 350.661 2530.84 423.11C2487.32 472.015 2438.86 513.935 2387.48 535.303C2336.04 556.696 2281.67 557.478 2226.53 524.113L2226.52 524.109C2115.46 455.935 2040.9 374.543 1974.62 302.191C1959.61 285.806 1945.03 269.885 1930.54 254.685C1852.07 172.354 1776.43 111.18 1651.36 111.407C1619.04 111.678 1594.37 118.602 1574 130.414C1553.62 142.233 1537.47 158.988 1522.25 179.039C1511.64 193.034 1501.51 208.579 1490.72 225.144C1486.03 232.343 1481.22 239.734 1476.19 247.274C1459.59 272.135 1440.65 298.527 1416.05 324.692C1317.6 429.433 1128.98 530.096 638.499 516.162L638.562 513.911C1128.77 527.837 1316.6 427.208 1414.41 323.15C1438.88 297.115 1457.74 270.839 1474.31 246.024C1479.31 238.538 1484.11 231.177 1488.78 223.994C1499.6 207.394 1509.79 191.74 1520.46 177.678C1535.77 157.505 1552.13 140.494 1572.87 128.466C1593.62 116.431 1618.69 109.429 1651.34 109.155L1651.35 109.155C1777.38 108.925 1853.57 170.672 1932.17 253.132C1946.71 268.379 1961.32 284.334 1976.35 300.74C2042.62 373.078 2116.93 454.195 2227.69 522.188C2282.15 555.135 2335.76 554.377 2386.62 533.224C2437.54 512.046 2485.73 470.415 2529.15 421.613C2593.47 349.335 2647.11 261.624 2683.68 201.831Z" fill="white" fill-opacity="0.24"/>
<path opacity="0.48" fill-rule="evenodd" clip-rule="evenodd" d="M2668.38 218.733C2684.96 193.087 2698.79 171.694 2709.38 157.665L2711.18 159.022C2700.63 172.992 2686.88 194.261 2670.35 219.835C2660.05 235.776 2648.66 253.39 2636.29 271.951C2604.13 320.235 2565.39 374.823 2522.02 422.65C2478.67 470.466 2430.61 511.604 2379.77 532.898C2328.88 554.215 2275.2 555.638 2220.8 524.01L2220.79 524.004C2112.02 459.334 2038.41 381.969 1972.85 313.059C1957.72 297.159 1943.02 281.709 1928.41 266.97C1850.5 188.335 1775.29 129.864 1651.98 130.206C1618.01 130.613 1592.17 137.002 1570.93 147.81C1549.69 158.621 1532.99 173.889 1517.34 192.164C1506.24 205.124 1495.71 219.549 1484.47 234.952C1479.83 241.302 1475.07 247.817 1470.11 254.465C1453.11 277.212 1433.69 301.42 1408.38 325.536C1307.06 422.052 1111.6 516.693 598.626 511.992L598.646 509.74C1111.41 514.439 1306.14 419.817 1406.83 323.905C1432.01 299.914 1451.34 275.818 1468.3 253.117C1473.23 246.521 1477.97 240.035 1482.59 233.701C1493.86 218.265 1504.47 203.73 1515.63 190.699C1531.39 172.294 1548.32 156.794 1569.91 145.803C1591.51 134.81 1617.71 128.364 1651.97 127.954L1651.98 127.954C1776.2 127.609 1851.97 186.618 1930.01 265.385C1944.67 280.173 1959.4 295.656 1974.55 311.577C2040.1 380.471 2113.46 457.57 2221.93 522.066C2275.65 553.288 2328.57 551.905 2378.9 530.821C2429.29 509.713 2477.09 468.854 2520.36 421.138C2563.61 373.434 2602.27 318.956 2634.42 270.703C2646.72 252.236 2658.08 234.664 2668.38 218.733Z" fill="white" fill-opacity="0.24"/>
<path opacity="0.48" fill-rule="evenodd" clip-rule="evenodd" d="M2653.25 234.129C2673.43 204.486 2690.29 179.704 2703.17 164.239L2704.9 165.68C2692.1 181.057 2675.33 205.689 2655.2 235.272C2646.65 247.825 2637.5 261.27 2627.79 275.278C2595.23 322.242 2556.42 375.428 2513.21 422.165C2470.01 468.891 2422.35 509.247 2372.06 530.467C2321.72 551.708 2268.74 553.771 2215.07 523.881L2215.06 523.873C2108.57 462.686 2035.91 389.324 1971.07 323.844C1955.82 308.45 1941.01 293.491 1926.29 279.229C1848.94 204.292 1774.15 148.524 1652.62 148.979C1616.99 149.521 1589.97 155.373 1567.87 165.177C1545.77 174.98 1528.51 188.764 1512.42 205.264C1500.82 217.168 1489.86 230.447 1478.13 244.664C1473.57 250.187 1468.9 255.852 1464.02 261.632C1446.62 282.265 1426.74 304.288 1400.7 326.353C1296.53 414.642 1094.23 503.265 558.751 507.796L558.732 505.544C1094.05 501.014 1295.69 412.402 1399.25 324.635C1425.15 302.685 1444.94 280.768 1462.3 260.18C1467.13 254.447 1471.79 248.81 1476.33 243.301C1488.09 229.055 1499.14 215.667 1510.81 203.692C1527.03 187.057 1544.51 173.072 1566.96 163.118C1589.39 153.166 1616.72 147.273 1652.59 146.728L1652.6 146.727C1775.02 146.266 1850.37 202.538 1927.85 277.611C1942.62 291.922 1957.47 306.914 1972.74 322.329C2037.57 387.793 2109.97 460.897 2216.17 521.917C2269.14 551.415 2321.38 549.407 2371.19 528.392C2421.04 507.354 2468.45 467.267 2511.56 420.637C2554.66 374.018 2593.39 320.936 2625.94 273.995C2635.6 260.062 2644.72 246.661 2653.25 234.129Z" fill="white" fill-opacity="0.24"/>
<path opacity="0.48" fill-rule="evenodd" clip-rule="evenodd" d="M2638.28 248.224C2661.91 215.159 2681.77 187.377 2696.96 170.786L2698.62 172.306C2683.53 188.787 2663.79 216.405 2640.18 249.441C2633.52 258.764 2626.55 268.518 2619.29 278.576C2586.33 324.22 2547.44 376.005 2504.4 421.651C2461.36 467.287 2414.09 506.861 2364.35 528.006C2314.56 549.171 2262.26 551.875 2209.34 523.723L2209.33 523.719L2209.32 523.714C2105.11 465.99 2033.41 396.604 1969.28 334.539C1953.92 319.672 1938.99 305.225 1924.16 291.459C1847.38 220.219 1773 167.154 1653.24 167.723C1615.96 168.401 1587.78 173.713 1564.8 182.511C1541.83 191.307 1524.01 203.607 1507.49 218.336C1495.35 229.166 1483.93 241.279 1471.67 254.288C1467.22 259.005 1462.67 263.839 1457.92 268.773C1440.12 287.291 1419.77 307.128 1393.02 327.14C1285.99 407.201 1076.85 489.808 518.872 503.57L518.816 501.319C1076.69 487.56 1285.23 404.961 1391.67 325.337C1418.29 305.428 1438.54 285.688 1456.3 267.213C1461 262.32 1465.54 257.509 1469.97 252.806C1482.26 239.772 1493.77 227.555 1506 216.655C1522.66 201.794 1540.71 189.325 1564 180.408C1587.27 171.495 1615.73 166.153 1653.21 165.472L1653.22 165.472C1773.84 164.896 1848.76 218.43 1925.69 289.809C1940.58 303.623 1955.54 318.102 1970.92 332.99C2035.04 395.038 2106.48 464.174 2210.41 521.739C2262.63 549.513 2314.19 546.88 2363.47 525.934C2412.79 504.967 2459.81 465.651 2502.76 420.106C2545.7 374.572 2584.51 322.887 2617.46 277.257C2624.69 267.249 2631.64 257.527 2638.28 248.224Z" fill="white" fill-opacity="0.24"/>
<path opacity="0.48" fill-rule="evenodd" clip-rule="evenodd" d="M2623.44 261.215C2650.4 225.222 2673.2 194.773 2690.75 177.303L2692.34 178.899C2674.91 196.243 2652.23 226.526 2625.26 262.54C2620.56 268.813 2615.74 275.26 2610.78 281.842C2577.43 326.166 2538.47 376.55 2495.58 421.106C2452.71 465.652 2405.83 504.444 2356.64 525.515C2307.4 546.604 2255.8 549.946 2203.62 523.534L2203.61 523.529L2203.6 523.523C2101.64 469.239 2030.91 403.802 1967.5 345.137C1952.02 330.821 1936.98 316.908 1922.03 303.659C1845.82 236.115 1771.86 185.752 1653.87 186.436C1576.06 188.063 1536.42 205.496 1502.56 231.376C1489.81 241.117 1477.89 252.047 1465.04 263.833C1460.76 267.759 1456.38 271.781 1451.82 275.884C1433.62 292.287 1412.8 309.935 1385.34 327.894C1275.46 399.727 1059.49 476.321 478.995 499.313L478.906 497.063C1059.32 474.074 1274.77 397.489 1384.1 326.009C1411.44 308.139 1432.16 290.575 1450.32 274.212C1454.83 270.142 1459.19 266.142 1463.46 262.227C1476.34 250.421 1488.36 239.395 1501.19 229.587C1535.49 203.377 1575.61 185.819 1653.83 184.185L1653.84 184.184L1653.85 184.184C1772.66 183.493 1847.15 234.29 1923.53 301.974C1938.53 315.271 1953.6 329.216 1969.1 343.553C2032.5 402.2 2102.97 467.398 2204.64 521.53C2256.12 547.581 2307 544.322 2355.75 523.445C2404.54 502.547 2451.17 464.003 2493.96 419.544C2536.75 375.095 2575.64 324.806 2608.98 280.488C2613.93 273.922 2618.75 267.484 2623.44 261.215Z" fill="white" fill-opacity="0.24"/>
<path opacity="0.48" fill-rule="evenodd" clip-rule="evenodd" d="M2608.69 273.251C2638.85 234.756 2664.57 201.933 2684.54 183.788L2686.06 185.455C2666.23 203.463 2640.64 236.132 2610.4 274.714C2607.73 278.123 2605.02 281.579 2602.28 285.074C2568.53 328.078 2529.5 377.061 2486.77 420.526C2444.05 463.982 2397.58 501.992 2348.93 522.988C2300.23 544.001 2249.33 547.983 2197.89 523.31L2197.88 523.304L2197.87 523.298C2098.16 472.431 2028.39 410.913 1965.7 355.632C1950.12 341.891 1934.97 328.535 1919.91 315.824C1844.26 251.976 1770.71 204.316 1654.5 205.114C1573.38 207.013 1532.37 222.016 1497.61 244.38C1484.19 253.021 1471.69 262.757 1458.15 273.311C1454.12 276.457 1449.99 279.677 1445.71 282.961C1427.11 297.247 1405.83 312.706 1377.65 328.61C1264.93 392.218 1042.12 462.799 439.116 495.021L438.996 492.773C1041.96 460.553 1264.31 389.983 1376.54 326.649C1404.59 310.817 1425.78 295.428 1444.34 281.175C1448.58 277.916 1452.69 274.713 1456.72 271.576C1470.27 261.008 1482.87 251.188 1496.4 242.486C1531.58 219.849 1573.02 204.768 1654.45 202.863L1654.46 202.862L1654.47 202.862C1771.48 202.056 1845.54 250.115 1921.36 314.104C1936.48 326.861 1951.66 340.249 1967.27 354.011C2029.94 409.273 2099.45 470.562 2198.88 521.286C2249.61 545.614 2299.81 541.73 2348.03 520.921C2396.29 500.093 2442.53 462.32 2485.17 418.947C2527.79 375.582 2566.76 326.69 2600.51 283.684C2603.27 280.166 2606 276.686 2608.69 273.251Z" fill="white" fill-opacity="0.24"/>
<path opacity="0.48" fill-rule="evenodd" clip-rule="evenodd" d="M2593.99 284.447C2627.26 243.822 2655.88 208.883 2678.34 190.236L2679.78 191.969C2657.48 210.475 2628.98 245.282 2595.57 286.071L2593.77 288.267C2559.63 329.951 2520.52 377.533 2477.96 419.906C2435.4 462.273 2389.32 499.501 2341.21 520.422C2293.07 541.359 2242.86 545.979 2192.17 523.047L2192.16 523.04L2192.14 523.033C2094.66 475.56 2025.86 417.928 1963.89 366.013C1948.2 352.874 1932.95 340.101 1917.79 327.951C1842.7 267.797 1769.57 222.839 1655.12 223.752C1570.71 225.923 1528.32 238.489 1492.66 257.341C1478.41 264.874 1465.23 273.411 1450.84 282.734C1447.18 285.105 1443.44 287.528 1439.59 289.997C1420.59 302.166 1398.84 315.434 1369.95 329.283C1254.4 384.669 1024.76 449.238 399.234 490.69L399.085 488.443C1024.58 446.993 1253.85 382.438 1368.98 327.253C1397.75 313.459 1419.41 300.244 1438.37 288.101C1442.2 285.647 1445.92 283.235 1449.58 280.87C1463.98 271.539 1477.26 262.934 1491.61 255.35C1527.66 236.289 1570.42 223.677 1655.07 221.501L1655.08 221.501L1655.09 221.501C1770.3 220.579 1843.93 265.902 1919.19 326.194C1934.42 338.389 1949.7 351.194 1965.42 364.354C2027.37 416.25 2095.91 473.662 2193.11 521.002C2243.1 543.608 2292.62 539.098 2340.31 518.357C2388.04 497.6 2433.89 460.598 2476.37 418.311C2518.84 376.03 2557.88 328.534 2592.03 286.84C2592.69 286.04 2593.34 285.243 2593.99 284.447Z" fill="white" fill-opacity="0.24"/>
<path opacity="0.48" fill-rule="evenodd" clip-rule="evenodd" d="M2583.55 289.953C2618.06 249.621 2648.09 214.902 2672.13 196.643L2673.49 198.437C2649.69 216.514 2619.84 251.004 2585.27 291.417C2583.81 293.114 2582.35 294.822 2580.88 296.539C2547.43 335.655 2509.76 379.698 2469.14 419.244C2426.74 460.52 2381.06 496.966 2333.5 517.813C2285.91 538.673 2236.39 543.931 2186.45 522.74L2186.43 522.733L2186.41 522.725C2091.15 478.618 2023.31 424.841 1962.05 376.273C1946.27 363.763 1930.93 351.599 1915.67 340.035C1841.14 283.574 1768.43 241.32 1655.75 242.347C1568.04 244.791 1524.27 254.913 1487.7 270.252C1472.38 276.677 1458.32 284.018 1442.77 292.131C1439.73 293.72 1436.63 295.339 1433.45 296.986C1414.06 307.037 1391.85 318.115 1362.25 329.909C1243.87 377.077 1007.4 435.633 359.352 486.315L359.176 484.07C1007.21 433.389 1243.38 374.85 1361.42 327.818C1390.92 316.062 1413.05 305.021 1432.41 294.987C1435.58 293.347 1438.67 291.732 1441.71 290.145C1457.25 282.032 1471.41 274.64 1486.83 268.176C1523.75 252.691 1567.82 242.544 1655.7 240.096L1655.71 240.096L1655.72 240.096C1769.12 239.059 1842.32 281.645 1917.03 338.24C1932.35 349.849 1947.73 362.043 1963.54 374.572C2024.78 423.121 2092.35 476.692 2187.34 520.674C2236.58 541.56 2285.44 536.423 2332.6 515.75C2379.79 495.062 2425.25 458.833 2467.57 417.63C2508.12 378.159 2545.72 334.186 2579.19 295.054C2580.65 293.344 2582.11 291.644 2583.55 289.953Z" fill="white" fill-opacity="0.24"/>
<path opacity="0.48" fill-rule="evenodd" clip-rule="evenodd" d="M2575.08 293.016C2609.99 253.995 2640.74 220.506 2665.92 203.003L2667.21 204.853C2642.29 222.171 2611.73 255.426 2576.76 294.517C2573.26 298.431 2569.71 302.402 2566.12 306.42C2533.93 342.491 2498.33 382.37 2460.32 418.532C2418.09 458.718 2372.8 494.382 2325.79 515.154C2278.75 535.938 2229.93 541.834 2180.73 522.384L2180.71 522.376L2180.69 522.368C2087.61 481.6 2020.74 431.64 1960.18 386.398C1944.32 374.548 1928.9 363.022 1913.54 352.069C1839.58 299.302 1767.28 259.751 1656.37 260.893C1565.38 263.608 1520.23 271.284 1482.73 283.107C1465.84 288.432 1450.49 294.602 1433.16 301.566C1431.24 302.341 1429.29 303.126 1427.3 303.92C1407.52 311.852 1384.86 320.741 1354.55 330.481C1233.34 369.437 990.046 421.978 319.467 481.89L319.266 479.647C989.829 419.737 1232.91 367.21 1353.86 328.338C1384.09 318.621 1406.7 309.755 1426.47 301.83C1428.45 301.035 1430.4 300.25 1432.33 299.473C1449.65 292.514 1465.08 286.312 1482.05 280.959C1519.83 269.048 1565.21 261.36 1656.32 258.642L1656.33 258.642L1656.34 258.642C1767.94 257.49 1840.71 297.339 1914.85 350.236C1930.26 361.232 1945.73 372.787 1961.62 384.656C2022.15 429.879 2088.76 479.645 2181.57 520.297C2230.07 539.462 2278.24 533.698 2324.88 513.094C2371.54 492.476 2416.61 457.017 2458.77 416.901C2496.71 380.807 2532.24 340.998 2564.45 304.918C2568.03 300.901 2571.58 296.93 2575.08 293.016Z" fill="white" fill-opacity="0.24"/>
<path opacity="0.48" fill-rule="evenodd" clip-rule="evenodd" d="M2566.61 296.023C2601.92 258.312 2633.39 226.056 2659.72 209.311L2660.93 211.211C2634.89 227.773 2603.61 259.792 2568.25 297.563C2562.71 303.48 2557.07 309.538 2551.33 315.696C2520.52 348.791 2486.99 384.801 2451.51 417.765C2409.43 456.861 2364.54 491.742 2318.08 512.439C2271.59 533.147 2223.46 539.68 2175.01 521.972L2174.99 521.964L2174.97 521.956C2084.04 484.497 2018.13 438.317 1958.28 396.378C1942.35 385.22 1926.86 374.362 1911.43 364.048C1838.03 314.973 1766.14 278.126 1657 279.383C1562.72 282.371 1516.19 287.597 1477.76 295.897C1458.54 300.049 1441.33 304.974 1421.15 310.789L1419.52 311.259C1399.73 316.965 1377.03 323.511 1346.85 330.993C1222.82 361.742 972.692 408.268 279.585 477.41L279.361 475.169C972.452 406.028 1222.45 359.515 1346.31 328.807C1376.44 321.336 1399.12 314.799 1418.91 309.094L1420.53 308.626C1440.7 302.812 1457.98 297.867 1477.28 293.696C1515.91 285.352 1562.6 280.121 1656.94 277.132L1656.95 277.132L1656.96 277.132C1766.76 275.865 1839.1 312.978 1912.68 362.177C1928.17 372.531 1943.71 383.417 1959.66 394.592C2019.49 436.512 2085.14 482.512 2175.8 519.865C2223.56 537.31 2271.06 530.918 2317.16 510.382C2363.29 489.834 2407.97 455.147 2449.98 416.115C2485.39 383.212 2518.86 347.271 2549.67 314.175C2555.41 308.013 2561.06 301.95 2566.61 296.023Z" fill="white" fill-opacity="0.24"/>
<path opacity="0.48" fill-rule="evenodd" clip-rule="evenodd" d="M2558.13 298.968C2593.84 262.567 2626.04 231.544 2653.51 215.557L2654.64 217.503C2627.48 233.31 2595.5 264.096 2559.74 300.545C2552.15 308.28 2544.39 316.267 2536.48 324.415C2507.16 354.609 2475.7 387.006 2442.69 416.935C2400.78 454.94 2356.28 489.04 2310.36 509.662C2264.43 530.293 2217 537.462 2169.29 521.497L2169.27 521.489L2169.24 521.48C2080.44 487.3 2015.48 444.859 1956.31 406.199C1940.34 395.767 1924.79 385.61 1909.32 375.965C1836.48 330.581 1765 296.439 1657.63 297.81C1560.06 301.07 1512.15 303.844 1472.79 308.615C1445.18 311.961 1421.78 316.288 1388.39 322.464C1374.16 325.096 1358.11 328.064 1339.15 331.436C1212.3 353.985 955.337 394.494 239.7 472.867L239.455 470.628C955.073 392.258 1211.98 351.755 1338.75 329.219C1357.66 325.857 1373.69 322.893 1387.91 320.262C1421.34 314.079 1444.83 309.735 1472.51 306.38C1511.99 301.595 1559.99 298.819 1657.56 295.559L1657.57 295.559L1657.59 295.559C1765.57 294.177 1837.48 328.554 1910.51 374.054C1926.05 383.737 1941.63 393.92 1957.63 404.369C2016.77 443.01 2081.48 485.286 2170.03 519.37C2217.04 535.096 2263.87 528.075 2309.44 507.608C2355.04 487.128 2399.33 453.213 2441.18 415.267C2474.13 385.391 2505.52 353.063 2534.84 322.875C2542.76 314.719 2550.53 306.72 2558.13 298.968Z" fill="white" fill-opacity="0.24"/>
<path opacity="0.48" fill-rule="evenodd" clip-rule="evenodd" d="M2549.66 301.84C2585.78 266.749 2618.7 236.961 2647.3 221.734L2648.36 223.722C2620.08 238.774 2587.38 268.329 2551.23 303.455C2541.57 312.841 2531.67 322.62 2521.54 332.619C2493.83 359.99 2464.46 388.998 2433.88 416.033C2392.12 452.948 2348.03 486.265 2302.65 506.813C2257.26 527.367 2210.53 535.171 2163.58 520.95L2163.55 520.942L2163.53 520.933C2076.79 490 2012.77 451.253 1954.26 415.846C1938.28 406.176 1922.71 396.755 1907.2 387.81C1834.93 346.117 1763.86 314.679 1658.25 316.166C1591.92 318.489 1547.89 319.423 1514.06 320.141C1445.01 321.606 1418.45 322.17 1331.45 331.802C1276.9 337.84 1198.63 347.441 1071.32 363.057C895.944 384.568 627.505 417.495 199.815 468.252L199.55 466.016C627.202 415.263 895.645 382.336 1071.03 360.824C1198.37 345.205 1276.65 335.603 1331.2 329.564C1418.3 319.921 1444.97 319.355 1514.09 317.887C1547.93 317.169 1591.93 316.235 1658.19 313.915L1658.2 313.914L1658.21 313.914C1764.39 312.418 1835.87 344.06 1908.33 385.859C1923.9 394.84 1939.51 404.285 1955.51 413.97C2013.99 449.36 2077.77 487.955 2164.26 518.803C2210.53 532.81 2256.68 525.16 2301.72 504.761C2346.79 484.352 2390.69 451.207 2432.39 414.346C2462.92 387.355 2492.22 358.414 2519.92 331.056C2530.06 321.048 2539.97 311.252 2549.66 301.84Z" fill="white" fill-opacity="0.24"/>
<path opacity="0.48" fill-rule="evenodd" clip-rule="evenodd" d="M2541.19 304.63C2577.71 270.849 2611.35 242.296 2641.1 227.83L2642.08 229.855C2612.68 244.155 2579.26 272.479 2542.72 306.283C2530.95 317.168 2518.86 328.619 2506.49 340.34C2480.49 364.965 2453.24 390.783 2425.06 415.049C2383.47 450.874 2339.77 483.408 2294.94 503.881C2250.1 524.359 2204.07 532.798 2157.86 520.32L2157.84 520.312L2157.81 520.303C2073.08 492.582 2009.97 457.484 1952.09 425.301C1936.14 416.431 1920.59 407.783 1905.09 399.572C1833.38 361.569 1762.72 332.837 1658.88 334.438C1554.76 338.242 1504.07 336.11 1462.85 333.796C1459.25 333.594 1455.72 333.391 1452.23 333.19C1415.85 331.093 1384.17 329.267 1323.75 332.08C1191.25 338.249 920.632 366.72 159.929 463.554L159.645 461.32C920.312 364.49 1191.04 336.005 1323.64 329.831C1384.19 327.012 1415.95 328.843 1452.36 330.942C1455.85 331.143 1459.37 331.346 1462.97 331.548C1504.14 333.858 1554.75 335.989 1658.81 332.187L1658.82 332.187L1658.83 332.187C1763.21 330.575 1834.25 359.483 1906.15 397.582C1921.71 405.826 1937.3 414.495 1953.27 423.379C2011.12 455.545 2073.99 490.508 2158.48 518.153C2204.02 530.443 2249.49 522.163 2294.01 501.832C2338.54 481.492 2382.05 449.119 2423.59 413.343C2451.73 389.111 2478.91 363.36 2504.89 338.754C2517.27 327.023 2529.38 315.552 2541.19 304.63Z" fill="white" fill-opacity="0.24"/>
<path opacity="0.48" fill-rule="evenodd" clip-rule="evenodd" d="M2532.72 307.324C2569.64 274.853 2604.01 247.538 2634.89 233.833L2635.8 235.891C2605.27 249.439 2571.14 276.533 2534.21 309.015C2520.28 321.263 2505.95 334.279 2491.28 347.606C2467.11 369.564 2442.01 392.366 2416.24 413.969C2374.81 448.704 2331.51 480.456 2287.23 500.853C2242.94 521.254 2197.6 530.327 2152.15 519.593L2152.12 519.586L2152.09 519.577C2069.29 495.035 2007.05 463.535 1949.77 434.545C1933.91 426.517 1918.42 418.68 1902.99 411.238C1831.83 376.924 1761.58 350.899 1659.5 352.615C1552.11 356.691 1500.04 352.104 1457.88 346.238C1449.69 345.099 1441.88 343.912 1434.12 342.732C1401.94 337.842 1370.53 333.069 1316.05 332.259C1180.73 330.246 903.278 352.695 120.042 458.761L119.74 456.529C902.931 350.47 1180.56 327.992 1316.08 330.007C1370.72 330.82 1402.28 335.616 1434.49 340.51C1442.24 341.688 1450.03 342.872 1458.19 344.008C1500.2 349.853 1552.13 354.437 1659.43 350.364L1659.44 350.364L1659.45 350.364C1762.02 348.638 1832.63 374.812 1903.97 409.21C1919.46 416.681 1934.98 424.536 1950.87 432.576C2008.12 461.551 2070.13 492.932 2152.7 517.409C2197.5 527.98 2242.3 519.07 2286.29 498.808C2330.29 478.536 2373.42 446.935 2414.8 412.244C2440.55 390.659 2465.57 367.925 2489.71 345.996C2504.38 332.661 2518.73 319.624 2532.72 307.324Z" fill="white" fill-opacity="0.24"/>
<path opacity="0.48" fill-rule="evenodd" clip-rule="evenodd" d="M2524.25 309.907C2561.57 278.747 2596.66 252.669 2628.68 239.727L2629.52 241.815C2597.87 254.611 2563.02 280.475 2525.69 311.636C2509.5 325.15 2492.87 339.64 2475.85 354.471C2473.26 356.728 2470.66 358.993 2468.05 361.264C2448.31 378.45 2428.07 395.954 2407.43 412.779C2366.15 446.422 2323.25 477.393 2279.52 497.714C2235.78 518.039 2191.14 527.745 2146.44 518.755L2146.41 518.748L2146.38 518.739C2065.4 497.342 2003.98 469.388 1947.23 443.558C1931.53 436.412 1916.18 429.429 1900.88 422.792C1830.28 392.168 1760.44 368.85 1660.13 370.681C1549.46 375.029 1496.02 367.987 1452.93 358.562C1442.62 356.309 1432.93 353.923 1423.19 351.528C1392.23 343.911 1360.88 336.196 1308.35 332.322C1170.21 322.133 885.924 338.56 80.1556 453.856L79.8368 451.627C885.552 336.339 1170.09 319.866 1308.52 330.076C1361.25 333.966 1392.82 341.733 1423.81 349.359C1433.52 351.749 1443.18 354.124 1453.41 356.362C1496.27 365.738 1549.52 372.774 1660.05 368.43L1660.07 368.43L1660.08 368.43C1760.84 366.589 1831.01 390.03 1901.78 420.727C1917.14 427.387 1932.52 434.387 1948.24 441.543C2004.96 467.359 2066.16 495.211 2146.92 516.554C2190.99 525.408 2235.11 515.866 2278.57 495.672C2322.04 475.469 2364.78 444.639 2406 411.033C2426.61 394.234 2446.83 376.751 2466.58 359.565C2469.18 357.296 2471.78 355.033 2474.37 352.776C2491.39 337.947 2508.04 323.438 2524.25 309.907Z" fill="white" fill-opacity="0.24"/>
<path opacity="0.48" fill-rule="evenodd" clip-rule="evenodd" d="M2515.78 312.36C2553.51 282.511 2589.32 257.671 2622.46 245.492L2623.24 247.606C2590.46 259.651 2554.89 284.287 2517.18 314.126C2498.66 328.778 2479.65 344.663 2460.21 360.901L2459.18 361.764C2439.39 378.298 2419.17 395.179 2398.61 411.458C2357.5 444.011 2314.99 474.199 2271.81 494.445C2228.62 514.693 2184.68 525.032 2140.74 517.785L2140.7 517.779L2140.67 517.771C2061.36 499.485 2000.68 475.02 1944.37 452.315C1928.94 446.096 1913.85 440.008 1898.78 434.216C1828.73 407.28 1759.3 386.671 1660.76 388.617C1546.81 393.238 1491.99 383.74 1447.98 370.751C1436.37 367.325 1425.53 363.666 1414.58 359.967C1384.02 349.644 1352.53 339.008 1300.66 332.252C1159.69 313.89 868.569 324.294 40.2668 448.822L39.9321 446.595C868.171 322.077 1159.62 311.609 1300.95 330.019C1353.06 336.806 1384.82 347.534 1415.43 357.873C1426.35 361.561 1437.12 365.199 1448.61 368.592C1492.33 381.494 1546.89 390.981 1660.68 386.366L1660.69 386.366L1660.7 386.366C1759.65 384.41 1829.39 405.119 1899.59 432.114C1914.71 437.926 1929.84 444.027 1945.28 450.255C2001.57 472.948 2062.03 497.327 2141.14 515.569C2184.47 522.706 2227.92 512.532 2270.85 492.406C2313.79 472.273 2356.14 442.214 2397.21 409.693C2417.74 393.435 2437.94 376.572 2457.73 360.036L2458.78 359.163C2478.21 342.932 2497.24 327.031 2515.78 312.36Z" fill="white" fill-opacity="0.24"/>
<path opacity="0.48" fill-rule="evenodd" clip-rule="evenodd" d="M2507.31 314.659C2545.45 286.121 2581.98 262.52 2616.25 251.105L2616.96 253.241C2583.06 264.535 2546.77 287.944 2508.66 316.462C2487.68 332.169 2466.22 349.357 2444.33 366.891C2426.44 381.231 2408.25 395.802 2389.79 409.983C2348.84 441.445 2306.73 470.851 2264.1 491.022C2221.46 511.193 2178.22 522.163 2135.03 516.66L2135 516.655L2134.96 516.648C2057.11 501.444 1997.06 480.41 1941.06 460.793C1926.06 455.542 1911.36 450.393 1896.69 445.484C1827.19 422.237 1758.17 404.337 1661.38 406.398C1544.16 411.291 1487.97 399.337 1443.04 382.783C1430.48 378.155 1418.83 373.186 1407 368.137C1376.5 355.121 1344.77 341.58 1292.98 332.024C1149.18 305.494 851.217 309.874 0.381348 443.632L0.0314941 441.408C850.795 307.661 1149.14 303.198 1293.39 329.81C1345.44 339.414 1377.49 353.091 1408.06 366.133C1419.84 371.163 1431.41 376.099 1443.82 380.67C1488.4 397.095 1544.28 409.033 1661.3 404.148L1661.31 404.147L1661.32 404.147C1758.47 402.077 1827.76 420.055 1897.4 443.348C1912.12 448.273 1926.85 453.432 1941.86 458.69C1997.84 478.297 2057.7 499.261 2135.35 514.431C2177.95 519.85 2220.73 509.044 2263.13 488.986C2305.55 468.921 2347.5 439.634 2388.42 408.198C2406.77 394.095 2424.95 379.533 2442.86 365.185C2464.8 347.609 2486.34 330.354 2507.31 314.659Z" fill="white" fill-opacity="0.24"/>
<path opacity="0.48" fill-rule="evenodd" clip-rule="evenodd" d="M2498.85 316.774C2537.39 289.547 2574.64 267.186 2610.04 256.534L2610.69 258.69C2575.65 269.233 2538.64 291.416 2500.15 318.613C2476.59 335.255 2452.54 353.727 2428.07 372.521C2412.53 384.454 2396.83 396.517 2380.97 408.324C2340.18 438.695 2298.47 467.319 2256.38 487.413C2214.29 507.509 2171.75 519.109 2129.33 515.349L2129.29 515.346L2129.25 515.34C2052.56 503.197 1992.95 485.535 1937.05 468.968C1922.73 464.725 1908.65 460.554 1894.59 456.566C1825.64 437.008 1757.03 421.818 1662.01 423.995C1541.51 429.16 1483.94 414.749 1438.1 394.628C1424.78 388.782 1412.49 382.479 1399.97 376.053C1369.36 360.354 1337.32 343.92 1285.29 331.61C1212.01 314.269 1099.16 305.175 895.418 318.302C691.688 331.429 397.14 366.77 -39.5083 438.259L-39.8723 436.037C396.807 364.543 691.437 329.189 895.273 316.055C1099.1 302.922 1212.21 312.002 1285.81 329.418C1338.12 341.794 1370.52 358.411 1401.2 374.149C1413.68 380.548 1425.87 386.802 1439.01 392.566C1484.45 412.513 1541.66 426.901 1661.92 421.745L1661.93 421.744L1661.95 421.744C1757.28 419.559 1826.14 434.808 1895.2 454.4C1909.3 458.399 1923.4 462.577 1937.74 466.825C1993.62 483.383 2053.05 500.992 2129.57 513.11C2171.44 516.811 2213.54 505.371 2255.41 485.381C2297.3 465.385 2338.87 436.869 2379.63 406.518C2395.42 394.757 2411.1 382.712 2426.63 370.784C2451.14 351.963 2475.27 333.433 2498.85 316.774Z" fill="white" fill-opacity="0.24"/>
<path opacity="0.48" fill-rule="evenodd" clip-rule="evenodd" d="M2490.38 318.666C2529.32 292.751 2567.3 271.631 2603.82 261.741L2604.41 263.915C2568.24 273.707 2530.52 294.663 2491.63 320.541C2465.32 338.048 2438.54 357.766 2411.38 377.764C2398.39 387.33 2385.31 396.959 2372.15 406.442C2331.53 435.722 2290.21 463.564 2248.67 483.582C2207.13 503.601 2165.29 515.831 2123.63 513.814L2123.59 513.812L2123.55 513.807C2047.54 504.723 1988.09 490.374 1931.96 476.824C1918.68 473.619 1905.58 470.459 1892.5 467.423C1824.1 451.555 1755.89 439.077 1662.63 441.368C1538.86 446.806 1479.93 429.937 1433.17 406.248C1419.21 399.172 1406.38 391.522 1393.26 383.701C1362.45 365.325 1330.05 346.006 1277.61 330.97C1202.91 309.55 1087.64 296.907 879.02 308.661C670.404 320.415 368.513 356.559 -79.3977 432.662L-79.7749 430.442C368.171 354.333 670.156 318.174 878.893 306.413C1087.62 294.653 1203.18 307.284 1278.23 328.806C1330.96 343.925 1363.75 363.472 1394.66 381.9C1407.72 389.686 1420.44 397.272 1434.19 404.24C1480.51 427.709 1539.03 444.546 1662.55 439.118L1662.56 439.118L1662.57 439.118C1756.09 436.818 1824.51 449.339 1893.01 465.229C1906.12 468.272 1919.23 471.437 1932.52 474.645C1988.64 488.19 2047.93 502.499 2123.78 511.566C2164.92 513.55 2206.36 501.475 2247.69 481.554C2289.05 461.626 2330.23 433.881 2370.83 404.615C2383.95 395.163 2397 385.55 2409.99 375.992C2437.17 355.976 2464.03 336.203 2490.38 318.666Z" fill="white" fill-opacity="0.24"/>
<path opacity="0.48" fill-rule="evenodd" clip-rule="evenodd" d="M2481.92 320.286C2521.27 295.684 2559.96 275.804 2597.61 266.678L2598.14 268.866C2560.84 277.908 2522.39 297.637 2483.11 322.196C2453.83 340.501 2424.15 361.452 2394.17 382.615C2383.92 389.847 2373.64 397.103 2363.33 404.287C2322.87 432.477 2281.95 459.537 2240.96 479.479C2199.97 499.421 2158.83 512.28 2117.93 512.004L2117.89 512.004L2117.85 512C2041.75 506.011 1982 494.926 1925.06 484.364C1913.43 482.207 1901.92 480.071 1890.41 478.006C1822.56 465.828 1754.75 456.063 1663.26 458.47C1536.21 464.18 1475.91 444.852 1428.25 417.596C1413.81 409.336 1400.49 400.317 1386.84 391.085C1378.08 385.153 1369.19 379.133 1359.78 373.17C1335.68 357.884 1307.99 342.803 1269.94 330.057C1193.82 304.558 1076.13 288.366 862.622 298.747C649.122 309.129 339.886 346.075 -119.286 426.794L-119.676 424.576C339.536 343.851 648.877 306.886 862.513 296.498C1076.14 286.111 1194.15 302.293 1270.65 327.922C1308.92 340.74 1336.77 355.912 1360.99 371.268C1370.52 377.315 1379.46 383.364 1388.23 389.303C1401.8 398.488 1414.97 407.408 1429.37 415.642C1476.57 442.633 1536.41 461.918 1663.17 456.22L1663.18 456.219L1663.19 456.219C1754.9 453.805 1822.88 463.598 1890.81 475.789C1902.33 477.858 1913.86 479.996 1925.5 482.155C1982.42 492.713 2042.04 503.772 2117.98 509.752C2158.4 510.017 2199.17 497.307 2239.98 477.454C2280.8 457.594 2321.59 430.621 2362.04 402.439C2372.33 395.274 2382.59 388.03 2392.83 380.806C2422.82 359.632 2452.58 338.628 2481.92 320.286Z" fill="white" fill-opacity="0.24"/>
<path opacity="0.48" fill-rule="evenodd" clip-rule="evenodd" d="M2112.19 509.987L2112.15 509.985C2034.6 507.211 1973.69 499.358 1914.91 491.781C1906.02 490.635 1897.17 489.494 1888.32 488.379C1821.02 479.893 1753.62 472.841 1663.89 475.364C1533.56 481.347 1471.9 459.559 1423.34 428.737C1408.38 419.241 1394.62 408.857 1380.52 398.207C1371.83 391.648 1363.01 384.989 1353.69 378.374C1329.18 360.977 1301.03 343.722 1262.27 328.936C1184.73 299.358 1064.62 279.618 846.226 288.627C627.84 297.635 311.26 335.385 -159.175 420.718L-159.577 418.502C310.902 333.161 627.598 295.391 846.133 286.377C1064.66 277.363 1185.12 297.097 1263.07 326.832C1302.06 341.704 1330.38 359.065 1354.99 376.538C1364.43 383.24 1373.3 389.933 1382 396.502C1396.03 407.101 1409.64 417.375 1424.55 426.836C1472.62 457.351 1533.8 479.083 1663.79 473.114L1663.8 473.114L1663.81 473.113C1753.72 470.585 1821.26 477.653 1888.6 486.144C1897.46 487.261 1906.31 488.402 1915.21 489.549C1973.97 497.124 2034.77 504.962 2112.19 507.733C2151.88 506.278 2191.98 492.932 2232.26 473.147C2272.55 453.355 2312.96 427.154 2353.25 400.057C2360.52 395.172 2367.78 390.258 2375.03 385.348C2408.01 363.032 2440.87 340.787 2473.45 321.7C2513.21 298.412 2552.61 279.772 2591.39 271.408L2591.87 273.609C2553.43 281.899 2514.26 300.403 2474.59 323.643C2442.08 342.689 2409.29 364.883 2376.32 387.197C2369.06 392.112 2361.79 397.032 2354.51 401.925C2314.21 429.024 2273.69 455.302 2233.25 475.168C2192.81 495.033 2152.37 508.521 2112.23 509.985L2112.19 509.987Z" fill="white" fill-opacity="0.24"/>
<path opacity="0.48" fill-rule="evenodd" clip-rule="evenodd" d="M2106.39 505.626C2184.4 499.267 2264.14 449.635 2344.46 397.584C2348.48 394.978 2352.51 392.366 2356.53 389.753C2432.76 340.259 2509.43 290.478 2585.17 276.049L2585.59 278.261C2510.3 292.604 2433.98 342.155 2357.6 391.743C2353.63 394.321 2349.66 396.9 2345.69 399.474C2265.47 451.455 2185.22 501.474 2106.53 507.874L2106.49 507.877L2106.45 507.878C2024.67 508.654 1960.95 504.052 1898.1 499.513C1894.14 499.228 1890.19 498.942 1886.24 498.658C1819.48 493.866 1752.48 489.53 1664.51 492.168C1530.91 498.423 1467.88 474.175 1418.43 439.789C1402.98 429.051 1388.83 417.294 1374.29 405.219C1365.65 398.039 1356.87 390.747 1347.6 383.489C1322.69 363.981 1294.07 344.55 1254.6 327.724C1175.63 294.067 1053.11 270.78 829.827 278.416C606.556 286.051 282.631 324.604 -199.067 414.551L-199.48 412.338C282.265 322.382 606.316 283.807 829.75 276.165C1053.18 268.524 1176.08 291.811 1255.48 325.653C1295.19 342.577 1323.98 362.127 1348.99 381.716C1358.37 389.064 1367.19 396.394 1375.85 403.585C1390.32 415.608 1404.33 427.245 1419.71 437.94C1468.67 471.98 1531.17 496.158 1664.42 489.918L1664.43 489.918L1664.43 489.918C1752.53 487.275 1819.62 491.618 1886.4 496.412C1890.35 496.696 1894.3 496.981 1898.25 497.267C1961.09 501.805 2024.72 506.4 2106.39 505.626Z" fill="white" fill-opacity="0.24"/>
<path opacity="0.48" fill-rule="evenodd" clip-rule="evenodd" d="M1414.88 445.028C1464.72 482.594 1528.55 509.218 1665.04 502.708L1665.05 502.708L1665.06 502.707C1742.86 500.222 1804.7 501.295 1864.64 502.335C1871.18 502.448 1877.69 502.561 1884.19 502.669C1950.38 503.767 2016.11 504.343 2100.59 499.507C2177.15 489.699 2255.66 440.974 2335.67 391.097L2337 390.267C2416.48 340.722 2497.41 290.271 2578.95 276.677L2579.32 278.898C2498.23 292.418 2417.61 342.671 2337.95 392.333L2336.86 393.007C2256.97 442.812 2178 491.874 2100.84 501.746L2100.8 501.751L2100.76 501.753C2016.18 506.596 1950.37 506.019 1884.15 504.921C1877.65 504.813 1871.14 504.7 1864.61 504.586C1804.67 503.546 1742.88 502.474 1665.14 504.958C1528.26 511.486 1463.87 484.776 1413.52 446.827C1397.62 434.843 1383.09 421.709 1368.15 408.2C1359.52 400.405 1350.76 392.486 1341.52 384.591C1316.21 362.971 1287.12 341.363 1246.93 322.498C1166.55 284.761 1041.59 257.927 813.431 264.19C585.274 270.453 254.004 309.809 -238.956 404.371L-239.38 402.159C253.631 307.588 585.036 268.207 813.369 261.939C1041.7 255.672 1167.05 282.511 1247.89 320.459C1288.32 339.437 1317.57 361.175 1342.98 382.879C1352.33 390.866 1361.14 398.825 1369.77 406.634C1384.66 420.088 1399.04 433.095 1414.88 445.028Z" fill="white" fill-opacity="0.24"/>
<path opacity="0.48" fill-rule="evenodd" clip-rule="evenodd" d="M1504.47 486.947C1544.55 498.496 1595.77 504.076 1665.66 500.684L1665.67 500.684L1665.68 500.684C1704.35 499.37 1739.18 498.426 1771.89 497.541C1882.08 494.558 1968.08 492.229 2094.79 478.578C2166.53 465.914 2240.24 421.732 2316.15 376.23C2319.72 374.087 2323.3 371.941 2326.89 369.796C2406.49 322.147 2488.48 274.641 2572.73 262.492L2573.05 264.721C2489.33 276.795 2407.72 324.037 2328.04 371.728C2324.4 373.905 2320.77 376.084 2317.14 378.26C2241.37 423.681 2167.32 468.072 2095.15 480.802L2095.11 480.808L2095.07 480.812C1968.24 494.478 1882.14 496.809 1771.91 499.793C1739.21 500.678 1704.4 501.621 1665.76 502.934C1595.71 506.333 1544.23 500.748 1503.85 489.11C1463.45 477.467 1434.21 459.781 1408.62 439.052C1392.28 425.819 1377.39 411.302 1362.06 396.354C1353.44 387.948 1344.68 379.407 1335.44 370.881C1309.73 347.148 1280.17 323.364 1239.27 302.458C1157.46 260.642 1030.08 230.261 797.035 235.151C563.991 240.042 225.376 280.2 -278.846 379.377L-279.281 377.168C224.996 277.98 563.756 237.795 796.987 232.9C1030.21 228.006 1158.01 258.397 1240.3 300.453C1281.44 321.482 1311.17 345.408 1336.97 369.226C1346.31 377.846 1355.11 386.43 1363.75 394.851C1379.02 409.743 1393.77 424.126 1410.04 437.302C1435.43 457.877 1464.41 475.401 1504.47 486.947Z" fill="white" fill-opacity="0.24"/>
<path opacity="0.48" fill-rule="evenodd" clip-rule="evenodd" d="M1501.48 483.493C1542.41 496.061 1594.77 502.185 1666.29 498.658L1666.3 498.657C1831.59 492.689 1929.34 483.382 2088.99 457.648C2155.07 442.654 2223.06 403.37 2293.67 362.574C2301.77 357.889 2309.92 353.183 2318.1 348.492C2397.41 303.006 2480.01 258.934 2566.51 248.305L2566.79 250.54C2480.79 261.106 2398.56 304.943 2319.22 350.446C2311.04 355.137 2302.89 359.847 2294.77 364.539C2224.22 405.306 2155.9 444.783 2089.46 459.852L2089.42 459.86L2089.39 459.866C1929.62 485.619 1831.78 494.935 1666.39 500.907C1594.71 504.442 1542.07 498.311 1500.82 485.646C1459.56 472.975 1429.75 453.781 1403.72 431.276C1386.97 416.79 1371.73 400.885 1356.02 384.492C1347.39 375.481 1338.61 366.322 1329.37 357.17C1303.26 331.324 1273.23 305.362 1231.61 282.415C1148.37 236.519 1018.57 202.591 780.639 206.109C542.709 209.628 196.749 250.589 -318.736 354.38L-319.181 352.173C196.362 248.37 542.476 207.379 780.606 203.858C1018.73 200.337 1148.98 234.282 1232.7 280.443C1274.56 303.524 1304.75 329.636 1330.95 355.569C1340.29 364.816 1349.11 374.019 1357.76 383.047C1373.41 399.383 1388.51 415.147 1405.19 429.572C1431.04 451.915 1460.57 470.931 1501.48 483.493Z" fill="white" fill-opacity="0.24"/>
<path opacity="0.48" fill-rule="evenodd" clip-rule="evenodd" d="M1498.49 480.038C1540.26 493.623 1593.77 500.292 1666.91 496.629L1666.92 496.629C1828.58 490.433 1928.19 470.49 2083.19 436.72C2143.07 419.992 2204.72 385.519 2269.12 349.513C2282.4 342.089 2295.79 334.599 2309.31 327.187C2388.33 283.865 2471.54 243.225 2560.29 234.116L2560.52 236.356C2472.26 245.415 2389.4 285.846 2310.39 329.161C2296.92 336.548 2283.56 344.02 2270.3 351.435C2205.89 387.45 2143.94 422.093 2083.76 438.898L2083.73 438.906L2083.7 438.913C1928.65 472.695 1828.89 492.675 1667.02 498.879C1593.7 502.55 1539.9 495.873 1497.79 482.18C1455.67 468.481 1425.3 447.78 1398.83 423.499C1381.66 407.756 1366.09 390.46 1350.02 372.618C1341.36 363.004 1332.57 353.232 1323.3 343.458C1296.78 315.499 1266.29 287.359 1223.96 262.37C1139.28 212.394 1007.06 174.92 764.243 177.066C521.427 179.212 168.121 220.976 -358.627 329.382L-359.081 327.176C167.727 218.758 521.196 176.962 764.223 174.814C1007.25 172.666 1139.94 210.165 1225.1 260.431C1267.68 285.564 1298.33 313.862 1324.93 341.909C1334.29 351.778 1343.13 361.595 1351.8 371.227C1367.81 389.011 1383.25 406.163 1400.35 421.839C1426.64 445.951 1456.73 466.459 1498.49 480.038Z" fill="white" fill-opacity="0.24"/>
<path opacity="0.48" fill-rule="evenodd" clip-rule="evenodd" d="M1495.49 476.581C1538.12 491.183 1592.77 498.397 1667.53 494.599L1667.55 494.598C1816.61 488.54 1915.32 461 2052.21 422.809C2060.46 420.509 2068.84 418.169 2077.38 415.793C2130.31 398.118 2184.77 368.465 2241.82 337.411C2261.08 326.924 2280.64 316.278 2300.53 305.879C2379.24 264.722 2463.06 227.515 2554.07 219.926L2554.25 222.17C2463.72 229.72 2380.23 266.745 2301.57 307.875C2281.77 318.225 2262.27 328.84 2243.05 339.308C2185.94 370.397 2131.21 400.195 2078.07 417.938L2078.04 417.947L2078.02 417.955C2069.45 420.337 2061.04 422.683 2052.77 424.99C1915.91 463.175 1816.97 490.779 1667.64 496.848C1592.69 500.656 1537.73 493.432 1494.76 478.712C1451.78 463.985 1420.85 441.777 1393.93 415.721C1376.37 398.719 1360.47 380.027 1344.05 360.73C1335.36 350.518 1326.53 340.137 1317.23 329.746C1290.32 299.673 1259.35 269.354 1216.3 242.324C1130.2 188.267 995.548 147.246 747.848 148.02C500.145 148.793 139.494 191.36 -398.518 304.381L-398.981 302.177C139.094 189.143 499.916 146.542 747.84 145.768C995.768 144.994 1130.9 186.046 1217.5 240.417C1260.8 267.6 1291.92 298.084 1318.91 328.245C1328.29 338.732 1337.16 349.16 1345.87 359.391C1362.23 378.629 1378.01 397.171 1395.5 414.103C1422.24 439.984 1452.89 461.985 1495.49 476.581Z" fill="white" fill-opacity="0.24"/>
<path opacity="0.48" fill-rule="evenodd" clip-rule="evenodd" d="M1492.5 473.123C1535.97 488.742 1591.77 496.501 1668.16 492.567L1668.17 492.567C1806.6 486.605 1903.94 452.882 2027.59 410.045C2041.87 405.098 2056.5 400.03 2071.58 394.869C2106.22 381.324 2141.64 363.508 2178.22 344.192C2188.99 338.507 2199.86 332.691 2210.83 326.816C2237.14 312.738 2264.08 298.324 2291.74 284.57C2370.16 245.58 2454.59 211.805 2547.84 205.735L2547.99 207.982C2455.19 214.023 2371.07 247.642 2292.74 286.587C2265.11 300.324 2238.22 314.713 2211.93 328.785C2200.94 334.663 2190.06 340.486 2179.27 346.183C2142.67 365.51 2107.15 383.38 2072.38 396.974L2072.36 396.983L2072.33 396.991C2057.24 402.154 2042.61 407.226 2028.31 412.177C1904.69 455.01 1807.05 488.839 1668.27 494.816C1591.68 498.76 1535.57 490.99 1491.73 475.242C1447.89 459.488 1416.4 435.773 1389.04 407.943C1371.09 389.679 1354.86 369.589 1338.1 348.834C1329.38 338.027 1320.5 327.039 1311.16 316.034C1283.85 283.847 1252.42 251.35 1208.65 222.276C1121.12 164.137 984.037 119.571 731.452 118.972C478.862 118.374 110.865 161.744 -438.409 279.379L-438.881 277.177C110.459 159.528 478.635 116.121 731.457 116.721C984.284 117.32 1121.86 161.926 1209.89 220.401C1253.91 249.634 1285.49 282.304 1312.88 314.577C1322.3 325.678 1331.21 336.712 1339.95 347.539C1356.67 368.236 1372.76 388.174 1390.65 406.364C1417.83 434.015 1449.04 457.509 1492.5 473.123Z" fill="white" fill-opacity="0.24"/>
<path opacity="0.48" fill-rule="evenodd" clip-rule="evenodd" d="M1489.5 469.663C1533.82 486.3 1590.77 494.603 1668.78 490.534L1668.79 490.534C1801.14 484.498 1898.3 443.859 2015.44 394.864C2031.78 388.03 2048.51 381.034 2065.78 373.946C2099.7 358.665 2134.45 340.208 2170.5 320.958C2171.85 320.241 2173.19 319.522 2174.54 318.803C2209.34 300.219 2245.35 280.985 2282.96 263.261C2361.08 226.438 2446.12 196.095 2541.62 191.543L2541.72 193.792C2446.65 198.324 2361.91 228.536 2283.92 265.297C2246.36 282.997 2210.39 302.207 2175.58 320.797C2174.24 321.514 2172.9 322.23 2171.56 322.944C2135.51 342.193 2100.69 360.688 2066.68 376.007L2066.67 376.015L2066.65 376.022C2049.39 383.105 2032.67 390.101 2016.33 396.937C1899.2 445.928 1801.66 486.727 1668.9 492.783C1590.67 496.863 1533.4 488.547 1488.71 471.771C1444 454.989 1411.96 429.769 1384.15 400.165C1365.81 380.636 1349.28 359.145 1332.18 336.927C1323.41 325.528 1314.49 313.938 1305.1 302.323C1277.39 268.022 1245.49 233.344 1201 202.228C1112.03 140.007 972.527 91.8948 715.058 89.9238C457.581 87.9527 82.2375 132.126 -478.3 254.376L-478.78 252.175C81.8257 129.911 457.355 85.6991 715.075 87.6721C972.802 89.645 1112.82 137.806 1202.29 200.383C1247.02 231.667 1279.07 266.521 1306.85 300.908C1316.32 312.618 1325.27 324.256 1334.06 335.675C1351.11 357.834 1367.53 379.171 1385.8 398.623C1413.43 428.045 1445.19 453.032 1489.5 469.663Z" fill="white" fill-opacity="0.24"/>
<path opacity="0.48" fill-rule="evenodd" clip-rule="evenodd" d="M1486.5 466.202C1531.67 483.857 1589.76 492.705 1669.41 488.5L1669.41 488.5C1797.82 482.302 1895.62 434.007 2009.05 377.992C2025.64 369.8 2042.57 361.442 2059.97 353.026C2083.01 341.216 2106.49 328.395 2130.58 315.239C2245.28 252.602 2373.9 182.364 2535.39 177.351L2535.46 179.601C2374.56 184.596 2246.49 254.522 2131.8 317.146C2107.66 330.324 2084.12 343.178 2060.99 355.036L2060.98 355.042L2060.97 355.048C2043.58 363.453 2026.67 371.807 2010.08 380C1896.67 436.008 1798.43 484.526 1669.52 490.749C1589.66 494.965 1531.24 486.103 1485.68 468.3C1440.12 450.491 1407.51 423.765 1379.27 392.387C1360.55 371.591 1343.7 348.696 1326.27 325.013C1317.45 313.024 1308.48 300.834 1299.04 288.612C1270.92 252.197 1238.56 215.339 1193.35 182.18C1102.95 115.875 961.017 64.2176 698.663 60.8744C436.298 57.5311 53.6091 102.507 -518.191 229.371L-518.679 227.173C53.1917 100.293 436.075 55.2762 698.691 58.6227C961.318 61.9694 1103.77 113.684 1194.68 180.364C1240.13 213.697 1272.64 250.736 1300.82 287.236C1310.33 299.553 1319.34 311.791 1328.18 323.8C1345.56 347.425 1362.29 370.164 1380.94 390.88C1409.02 422.073 1441.34 448.553 1486.5 466.202Z" fill="white" fill-opacity="0.24"/>
<path opacity="0.48" fill-rule="evenodd" clip-rule="evenodd" d="M1483.5 462.74C1529.53 481.412 1588.76 490.805 1670.03 486.465L1670.03 486.465C1795.76 480.045 1894.85 423.248 2006 359.532C2021.78 350.489 2037.8 341.306 2054.17 332.108C2061.34 327.969 2068.55 323.783 2075.81 319.565C2200.23 247.326 2340.25 166.023 2529.17 163.158L2529.2 165.409C2340.89 168.266 2201.33 249.293 2076.87 321.554C2069.63 325.759 2062.44 329.933 2055.29 334.061L2055.28 334.068C2038.93 343.253 2022.92 352.43 2007.15 361.474C1896.04 425.174 1796.45 482.263 1670.15 488.713C1588.66 493.066 1529.07 483.658 1482.66 464.827C1436.23 445.991 1403.07 417.76 1374.38 384.609C1355.29 362.544 1338.13 338.241 1320.38 313.089C1311.5 300.514 1302.48 287.727 1292.98 274.901C1264.47 236.371 1231.63 197.333 1185.7 162.131C1093.87 91.7418 949.508 36.5389 682.269 31.8236C415.017 27.1081 24.9817 72.8868 -558.083 204.366L-558.578 202.169C24.5586 70.674 414.795 24.852 682.309 29.5722C949.834 34.2925 1094.73 89.5617 1187.07 160.343C1233.23 195.726 1266.21 234.948 1294.79 273.561C1304.36 286.482 1313.42 299.317 1322.31 311.913C1340.02 337.007 1357.06 361.152 1376.08 383.135C1404.61 416.099 1437.5 444.073 1483.5 462.74Z" fill="white" fill-opacity="0.24"/>
</g>
<defs>
<clipPath id="clip0_590_23691">
<rect width="2523" height="405" fill="white"/>
</clipPath>
</defs>
</svg>
