<svg width="24" height="25" viewBox="0 0 24 25" fill="none" xmlns="http://www.w3.org/2000/svg">
<path d="M4.125 7.09961H5.875H19.875" stroke="#084892" stroke-width="2" stroke-linecap="round" stroke-linejoin="round"/>
<path d="M8.5 7.1V5.3C8.5 4.82261 8.68438 4.36477 9.01256 4.02721C9.34075 3.68964 9.78587 3.5 10.25 3.5H13.75C14.2141 3.5 14.6592 3.68964 14.9874 4.02721C15.3156 4.36477 15.5 4.82261 15.5 5.3V7.1M18.125 7.1V19.7C18.125 20.1774 17.9406 20.6352 17.6124 20.9728C17.2842 21.3104 16.8391 21.5 16.375 21.5H7.625C7.16087 21.5 6.71575 21.3104 6.38756 20.9728C6.05937 20.6352 5.875 20.1774 5.875 19.7V7.1H18.125Z" stroke="#084892" stroke-width="2" stroke-linecap="round" stroke-linejoin="round"/>
<path d="M10.25 11.5996V16.9996" stroke="#084892" stroke-width="2" stroke-linecap="round" stroke-linejoin="round"/>
<path d="M13.75 11.5996V16.9996" stroke="#084892" stroke-width="2" stroke-linecap="round" stroke-linejoin="round"/>
</svg>
